<svg width="44" height="44" viewBox="0 0 44 44" fill="none" xmlns="http://www.w3.org/2000/svg">
<circle cx="22" cy="22" r="21" fill="#333333" stroke="#333333" stroke-width="2"/>
<path d="M15.9081 14.7759C15.6237 14.0502 15.6351 13.2211 15.7613 12.4624C16.6302 12.7235 17.4464 13.1355 18.1726 13.6794C18.4911 13.9228 18.9085 14.0013 19.2975 13.8842C20.2954 13.5848 21.3322 13.4346 22.3741 13.4383C23.4671 13.4383 24.5055 13.5975 25.4484 13.883C25.8374 14.0013 26.2548 13.9217 26.5721 13.6783C27.2979 13.1345 28.1137 12.7225 28.9823 12.4613C29.1085 13.2199 29.1187 14.0491 28.8367 14.7736C28.6661 15.2103 28.7514 15.7131 29.0732 16.0702C29.8967 16.9835 30.3357 18.0333 30.3357 19.1252C30.3357 21.5296 28.0951 23.8874 24.4964 24.6051C23.5956 24.7848 23.2442 25.9188 23.9334 26.5682C24.3759 26.9845 24.6488 27.5714 24.6488 28.2243V31.6364C24.6488 31.9381 24.7687 32.2274 24.982 32.4407C25.1953 32.654 25.4846 32.7738 25.7862 32.7738C26.0879 32.7738 26.3772 32.654 26.5905 32.4407C26.8038 32.2274 26.9236 31.9381 26.9236 31.6364V28.2243C26.9236 27.576 26.7871 26.9595 26.5437 26.401C29.9752 25.2102 32.6105 22.5294 32.6105 19.1252C32.6105 17.5932 32.06 16.1851 31.1467 15.0056C31.3855 14.073 31.3639 13.1335 31.2729 12.4124C31.1922 11.7664 31.0796 10.9201 30.6246 10.4151C29.9479 9.66561 28.8276 10.1069 28.0314 10.3787C27.1769 10.6668 26.3643 11.0664 25.6145 11.5673C24.5557 11.2967 23.4669 11.161 22.3741 11.1635C21.2435 11.1635 20.1528 11.3057 19.1314 11.5684C18.3816 11.0675 17.5689 10.6679 16.7145 10.3799C15.9183 10.1069 14.7968 9.66561 14.1201 10.4151C13.656 10.9292 13.5594 11.7083 13.4763 12.3703L13.4707 12.4135C13.3797 13.1358 13.3592 14.0764 13.598 15.0102C12.6881 16.1885 12.1376 17.5943 12.1376 19.1252C12.1376 22.5283 14.773 25.2102 18.2044 26.401C17.9565 26.9691 17.8272 27.5817 17.8245 28.2015L17.6335 28.2402C16.818 28.3528 16.2959 28.2516 15.941 28.1014C15.0766 27.7352 14.6308 26.8128 14.0871 26.1076C13.7482 25.6697 13.2546 25.1226 12.4971 24.8701C12.3553 24.8229 12.2057 24.8041 12.0566 24.8147C11.9076 24.8254 11.7622 24.8653 11.6286 24.9321C11.3587 25.0671 11.1536 25.3038 11.0583 25.5901C10.9629 25.8764 10.9852 26.1888 11.1203 26.4586C11.2553 26.7284 11.492 26.9336 11.7782 27.0289C12.4129 27.2404 12.8519 28.3278 13.2546 28.81C13.6788 29.3196 14.2429 29.8519 15.0516 30.1953C15.8273 30.5252 16.7383 30.6423 17.8245 30.5093V31.6364C17.8245 31.9381 17.9444 32.2274 18.1577 32.4407C18.371 32.654 18.6603 32.7738 18.9619 32.7738C19.2636 32.7738 19.5529 32.654 19.7662 32.4407C19.9795 32.2274 20.0993 31.9381 20.0993 31.6364V28.2243C20.0993 27.5714 20.3723 26.9845 20.8147 26.5682C21.5051 25.9177 21.1525 24.7848 20.2517 24.6051C16.6519 23.8874 14.4124 21.5296 14.4124 19.1252C14.4124 18.0356 14.8503 16.9858 15.6726 16.0725C15.9945 15.7153 16.0787 15.2126 15.9081 14.7759Z" fill="#F0EFEE"/>
</svg>
