<svg width="44" height="44" viewBox="0 0 44 44" fill="none" xmlns="http://www.w3.org/2000/svg">
<circle cx="22" cy="22" r="21" fill="#333333" stroke="#333333" stroke-width="2"/>
<path d="M21.5 7C18.6322 7 15.8287 7.85041 13.4442 9.44369C11.0597 11.037 9.20122 13.3016 8.10375 15.9511C7.00628 18.6006 6.71913 21.5161 7.27862 24.3288C7.83811 27.1415 9.2191 29.7252 11.247 31.753C13.2748 33.7809 15.8585 35.1619 18.6712 35.7214C21.4839 36.2809 24.3994 35.9937 27.0489 34.8962C29.6984 33.7988 31.963 31.9403 33.5563 29.5558C35.1496 27.1713 36 24.3678 36 21.5C35.9955 17.6557 34.4664 13.9702 31.7481 11.2519C29.0298 8.53364 25.3443 7.00451 21.5 7ZM33.0957 16.098H27.3554C26.6711 13.4609 25.4232 11.0034 23.6977 8.89495C25.7275 9.25284 27.6412 10.0943 29.277 11.348C30.9128 12.6018 32.2226 14.2311 33.0957 16.098ZM34.2941 21.5C34.2951 22.7521 34.1116 23.9975 33.7497 25.1961H27.7279C28.1431 22.7495 28.1431 20.2505 27.7279 17.8039H33.7497C34.1116 19.0025 34.2951 20.2479 34.2941 21.5ZM21.5 33.9856C20.6788 33.1479 19.9544 32.2204 19.3406 31.2207C18.5123 29.8733 17.8687 28.4207 17.4272 26.902H25.5728C25.1313 28.4207 24.4877 29.8733 23.6594 31.2207C23.0456 32.2204 22.3212 33.1479 21.5 33.9856ZM17.015 25.1961C16.5506 22.7539 16.5506 20.2461 17.015 17.8039H25.9851C26.4494 20.2461 26.4494 22.7539 25.9851 25.1961H17.015ZM8.70589 21.5C8.70493 20.2479 8.88839 19.0025 9.25035 17.8039H15.2721C14.8569 20.2505 14.8569 22.7495 15.2721 25.1961H9.25035C8.88839 23.9975 8.70493 22.7521 8.70589 21.5ZM21.5 9.01436C22.3212 9.8521 23.0456 10.7796 23.6594 11.7793C24.4877 13.1267 25.1313 14.5793 25.5728 16.098H17.4272C17.8687 14.5793 18.5123 13.1267 19.3406 11.7793C19.9544 10.7796 20.6788 9.8521 21.5 9.01436ZM19.3023 8.89495C17.5768 11.0034 16.3289 13.4609 15.6446 16.098H9.90427C10.7774 14.2311 12.0872 12.6018 13.723 11.348C15.3588 10.0943 17.2725 9.25284 19.3023 8.89495ZM9.90427 26.902H15.6446C16.3289 29.5391 17.5768 31.9966 19.3023 34.105C17.2725 33.7472 15.3588 32.9057 13.723 31.652C12.0872 30.3982 10.7774 28.7689 9.90427 26.902ZM23.6935 34.105C25.4205 31.9969 26.6698 29.5395 27.3554 26.902H33.0957C32.2226 28.7689 30.9128 30.3982 29.277 31.652C27.6412 32.9057 25.7275 33.7472 23.6977 34.105H23.6935Z" fill="#F0EFEE"/>
</svg>
