<svg width="44" height="44" viewBox="0 0 44 44" fill="none" xmlns="http://www.w3.org/2000/svg">
<circle cx="22" cy="22" r="21" fill="#333333" stroke="#333333" stroke-width="2"/>
<path d="M21.5 8C18.83 8 16.2199 8.79176 13.9998 10.2752C11.7797 11.7586 10.0494 13.867 9.02763 16.3338C8.00585 18.8006 7.7385 21.515 8.2594 24.1337C8.78031 26.7525 10.0661 29.1579 11.9541 31.0459C13.8421 32.9339 16.2475 34.2197 18.8663 34.7406C21.485 35.2615 24.1994 34.9941 26.6662 33.9724C29.133 32.9506 31.2414 31.2203 32.7248 29.0002C34.2082 26.7801 35 24.17 35 21.5C34.996 17.9208 33.5724 14.4893 31.0416 11.9584C28.5107 9.42756 25.0792 8.00397 21.5 8ZM21.5 31.375C20.3947 30.0814 19.5314 28.5995 18.9513 27H24.0538C23.7236 27.9044 23.3049 28.7741 22.8038 29.5962C22.4181 30.2235 21.9821 30.8184 21.5 31.375ZM18.1888 24C17.9412 22.3425 17.9412 20.6575 18.1888 19H24.8138C25.0613 20.6575 25.0613 22.3425 24.8138 24H18.1888ZM11 21.5C11 20.6575 11.102 19.818 11.3038 19H15.1563C14.9479 20.6602 14.9479 22.3398 15.1563 24H11.3038C11.102 23.182 11 22.3425 11 21.5ZM21.5 11.625C22.6053 12.9185 23.4686 14.4005 24.0488 16H18.9488C19.2789 15.0955 19.6976 14.2259 20.1988 13.4037C20.5836 12.7765 21.0188 12.1817 21.5 11.625ZM27.8413 19H31.6937C32.0988 20.642 32.0988 22.3579 31.6937 24H27.8438C28.0521 22.3398 28.0521 20.6602 27.8438 19H27.8413ZM30.4375 16H27.2138C26.7633 14.488 26.1117 13.0434 25.2763 11.705C27.419 12.5367 29.2319 14.0446 30.44 16H30.4375ZM17.7238 11.705C16.8883 13.0434 16.2367 14.488 15.7863 16H12.56C13.7681 14.0446 15.581 12.5367 17.7238 11.705ZM12.56 27H15.7863C16.2367 28.512 16.8883 29.9566 17.7238 31.295C15.581 30.4633 13.7681 28.9554 12.56 27ZM25.2763 31.295C26.1117 29.9566 26.7633 28.512 27.2138 27H30.44C29.2319 28.9554 27.419 30.4633 25.2763 31.295Z" fill="#F0EFEE"/>
</svg>
