<svg width="44" height="44" viewBox="0 0 44 44" fill="none" xmlns="http://www.w3.org/2000/svg">
<circle cx="22" cy="22" r="21" fill="#333333" stroke="#333333" stroke-width="2"/>
<path d="M22 7C19.0333 7 16.1332 7.87973 13.6665 9.52796C11.1997 11.1762 9.27713 13.5189 8.14181 16.2597C7.0065 19.0006 6.70945 22.0166 7.28823 24.9264C7.86701 27.8361 9.29562 30.5088 11.3934 32.6066C13.4912 34.7044 16.1639 36.133 19.0736 36.7118C21.9834 37.2906 24.9994 36.9935 27.7403 35.8582C30.4811 34.7229 32.8238 32.8003 34.472 30.3335C36.1203 27.8668 37 24.9667 37 22C36.9954 18.0232 35.4136 14.2105 32.6015 11.3985C29.7895 8.5864 25.9768 7.00458 22 7ZM34.6923 22C34.6933 23.1705 34.5317 24.3355 34.212 25.4615H28.6577C29.0116 23.1674 29.0116 20.8326 28.6577 18.5385H34.212C34.5317 19.6645 34.6933 20.8295 34.6923 22ZM18.25 27.7692H25.75C25.0112 30.1903 23.7285 32.4103 22 34.2596C20.2724 32.4097 18.9898 30.1899 18.25 27.7692ZM17.6875 25.4615C17.2912 23.1709 17.2912 20.8291 17.6875 18.5385H26.324C26.7203 20.8291 26.7203 23.1709 26.324 25.4615H17.6875ZM9.3077 22C9.30668 20.8295 9.46832 19.6645 9.78799 18.5385H15.3423C14.9884 20.8326 14.9884 23.1674 15.3423 25.4615H9.78799C9.46832 24.3355 9.30668 23.1705 9.3077 22ZM25.75 16.2308H18.25C18.9888 13.8097 20.2715 11.5897 22 9.74038C23.7277 11.5903 25.0102 13.8101 25.75 16.2308ZM33.2976 16.2308H28.1601C27.5125 13.8552 26.4212 11.6236 24.9438 9.65385C26.7289 10.0827 28.4002 10.8925 29.8431 12.0277C31.2861 13.1629 32.4664 14.5967 33.3034 16.2308H33.2976ZM19.0563 9.65385C17.5788 11.6236 16.4875 13.8552 15.8399 16.2308H10.6966C11.5336 14.5967 12.7139 13.1629 14.1569 12.0277C15.5998 10.8925 17.2711 10.0827 19.0563 9.65385ZM10.6966 27.7692H15.8399C16.4875 30.1448 17.5788 32.3764 19.0563 34.3461C17.2711 33.9173 15.5998 33.1075 14.1569 31.9723C12.7139 30.8371 11.5336 29.4033 10.6966 27.7692ZM24.9438 34.3461C26.4212 32.3764 27.5125 30.1448 28.1601 27.7692H33.3034C32.4664 29.4033 31.2861 30.8371 29.8431 31.9723C28.4002 33.1075 26.7289 33.9173 24.9438 34.3461Z" fill="#F0EFEE"/>
</svg>
