<svg width="58" height="58" viewBox="0 0 58 58" fill="none" xmlns="http://www.w3.org/2000/svg">
<circle cx="29" cy="29" r="28" stroke="#333333" stroke-width="2"/>
<circle cx="29" cy="29" r="21" fill="#333333" stroke="#333333" stroke-width="2"/>
<path d="M19.2929 38.2929C18.9024 38.6834 18.9024 39.3166 19.2929 39.7071C19.6834 40.0976 20.3166 40.0976 20.7071 39.7071L19.2929 38.2929ZM39 21C39 20.4477 38.5523 20 38 20H29C28.4477 20 28 20.4477 28 21C28 21.5523 28.4477 22 29 22H37V30C37 30.5523 37.4477 31 38 31C38.5523 31 39 30.5523 39 30V21ZM20.7071 39.7071L38.7071 21.7071L37.2929 20.2929L19.2929 38.2929L20.7071 39.7071Z" fill="#F8FAFC"/>
</svg>
