<svg width="71" height="15" viewBox="0 0 71 15" fill="none" xmlns="http://www.w3.org/2000/svg">
<path d="M5.86 14H0.7V0.4H5.86C7.27333 0.4 8.44 0.693333 9.36 1.28C10.28 1.85333 10.9667 2.64667 11.42 3.66C11.8867 4.66 12.12 5.81333 12.12 7.12C12.12 8.53333 11.8733 9.75333 11.38 10.78C10.9 11.7933 10.1933 12.58 9.26 13.14C8.34 13.6867 7.20667 13.9733 5.86 14ZM5.96 2.6H3.28V11.82H5.8C6.54667 11.82 7.18667 11.6667 7.72 11.36C8.26667 11.04 8.68667 10.5333 8.98 9.84C9.27333 9.14667 9.42 8.24 9.42 7.12C9.42 6.17333 9.3 5.36667 9.06 4.7C8.82 4.02 8.44 3.5 7.92 3.14C7.41333 2.78 6.76 2.6 5.96 2.6ZM26.0481 14H16.5281V0.4H24.6481L25.0481 2.44H19.1081V6.1H23.5481L23.9681 8.16H19.1081V11.98H25.6081L26.0481 14ZM32.7292 14H30.1492V0.4H34.3892C35.3892 0.4 36.2959 0.546666 37.1092 0.839999C37.9226 1.13333 38.5692 1.6 39.0492 2.24C39.5426 2.88 39.7892 3.72 39.7892 4.76C39.7892 5.52 39.6359 6.18667 39.3292 6.76C39.0226 7.33333 38.6026 7.80667 38.0692 8.18C37.5492 8.54 36.9559 8.81333 36.2892 9C35.6359 9.17333 34.9492 9.26 34.2292 9.26H32.7292V14ZM34.3092 2.56H32.7292V7.12H34.3692C34.8892 7.12 35.3426 7.04667 35.7292 6.9C36.1292 6.74 36.4426 6.5 36.6692 6.18C36.8959 5.84667 37.0226 5.42667 37.0492 4.92C37.0492 4.33333 36.9359 3.86667 36.7092 3.52C36.4959 3.17333 36.1892 2.92667 35.7892 2.78C35.3892 2.63333 34.8959 2.56 34.3092 2.56ZM49.6452 14.28C48.2318 14.28 47.0252 13.9667 46.0252 13.34C45.0385 12.7133 44.2852 11.8667 43.7652 10.8C43.2452 9.73333 42.9852 8.55333 42.9852 7.26C42.9852 5.86 43.2652 4.62667 43.8252 3.56C44.3852 2.49333 45.1652 1.65333 46.1652 1.04C47.1652 0.426667 48.3252 0.106666 49.6452 0.0799992C51.0718 0.0799992 52.2785 0.399999 53.2652 1.04C54.2652 1.66667 55.0185 2.50667 55.5252 3.56C56.0452 4.61333 56.3052 5.79333 56.3052 7.1C56.3052 8.51333 56.0252 9.75333 55.4652 10.82C54.9052 11.8867 54.1318 12.7267 53.1452 13.34C52.1585 13.94 50.9918 14.2533 49.6452 14.28ZM49.6452 12.1C50.3785 12.1 51.0385 11.92 51.6252 11.56C52.2252 11.1867 52.7052 10.6333 53.0652 9.9C53.4385 9.16667 53.6252 8.24 53.6252 7.12C53.6252 6.17333 53.4652 5.34 53.1452 4.62C52.8385 3.9 52.3852 3.33333 51.7852 2.92C51.1985 2.49333 50.4985 2.28 49.6852 2.28C48.9785 2.28 48.3185 2.48667 47.7052 2.9C47.0918 3.31333 46.5985 3.88667 46.2252 4.62C45.8652 5.35333 45.6852 6.22667 45.6852 7.24C45.6852 8.18667 45.8452 9.02667 46.1652 9.76C46.4852 10.4933 46.9385 11.0667 47.5252 11.48C48.1252 11.8933 48.8318 12.1 49.6452 12.1ZM70.2313 0.4L70.6513 2.44H65.9913V14H63.3713V2.44H59.2313V0.4H70.2313Z" fill="black"/>
</svg>
