<svg width="20" height="20" viewBox="0 0 20 20" fill="none" xmlns="http://www.w3.org/2000/svg">
<path fill-rule="evenodd" clip-rule="evenodd" d="M8.01803 1.71754C8.08598 1.2409 8.32371 0.804756 8.68756 0.489235C9.05141 0.173714 9.51694 0 9.99864 0C10.4803 0 10.9459 0.173714 11.3097 0.489235C11.6736 0.804756 11.9113 1.2409 11.9792 1.71754L16.7074 4.4757C16.9313 4.28703 17.194 4.14981 17.4768 4.07375C17.7597 3.99768 18.0558 3.98462 18.3442 4.03548C18.6327 4.08634 18.9064 4.19989 19.1462 4.3681C19.3859 4.53631 19.5857 4.75508 19.7316 5.00896C19.8774 5.26284 19.9657 5.54563 19.9903 5.83736C20.0148 6.12909 19.9749 6.42264 19.8734 6.69728C19.772 6.97191 19.6115 7.22094 19.4032 7.42675C19.1949 7.63257 18.9439 7.79016 18.668 7.88839V12.1143C18.9443 12.2122 19.1957 12.3696 19.4044 12.5754C19.6131 12.7812 19.774 13.0303 19.8757 13.3052C19.9774 13.58 20.0175 13.8738 19.993 14.1658C19.9686 14.4578 19.8802 14.7409 19.7341 14.995C19.5881 15.2491 19.388 15.468 19.148 15.6362C18.9079 15.8044 18.6338 15.9179 18.345 15.9685C18.0563 16.0191 17.7599 16.0057 17.4769 15.9292C17.1939 15.8526 16.9312 15.7149 16.7074 15.5256L11.9792 18.2825C11.9113 18.7591 11.6736 19.1952 11.3097 19.5108C10.9459 19.8263 10.4803 20 9.99864 20C9.51694 20 9.05141 19.8263 8.68756 19.5108C8.32371 19.1952 8.08598 18.7591 8.01803 18.2825L3.28992 15.5256C3.06595 15.7143 2.80327 15.8515 2.52043 15.9276C2.23759 16.0037 1.94149 16.0167 1.65304 15.9659C1.36459 15.915 1.09084 15.8014 0.851111 15.6332C0.611385 15.465 0.411537 15.2463 0.265684 14.9924C0.11983 14.7385 0.031529 14.4557 0.00701775 14.164C-0.0174935 13.8722 0.0223832 13.5787 0.123831 13.3041C0.225279 13.0294 0.385823 12.7804 0.594122 12.5746C0.802422 12.3688 1.0534 12.2112 1.32932 12.1129V7.88706C1.0534 7.78883 0.802422 7.63124 0.594122 7.42542C0.385823 7.2196 0.225279 6.97058 0.123831 6.69594C0.0223832 6.42131 -0.0174935 6.12776 0.00701775 5.83603C0.031529 5.5443 0.11983 5.2615 0.265684 5.00763C0.411537 4.75375 0.611385 4.53498 0.851111 4.36677C1.09084 4.19855 1.36459 4.08501 1.65304 4.03415C1.94149 3.98328 2.23759 3.99635 2.52043 4.07242C2.80327 4.14848 3.06595 4.2857 3.28992 4.47436L8.01803 1.71754ZM8.31812 3.08662L3.96212 5.62615C3.98524 5.7479 3.9968 5.87277 3.9968 6.00075C3.99702 6.41444 3.86886 6.81801 3.62998 7.15585C3.39111 7.49369 3.05328 7.74916 2.66306 7.88706V11.7983L8.39815 3.19994L8.31812 3.08662ZM9.50649 3.9398L3.59801 12.8008C3.71894 12.9608 3.81408 13.1381 3.88343 13.3327H16.1138C16.1832 13.139 16.2783 12.9612 16.3993 12.7995L10.4921 3.94113C10.1691 4.02306 9.8308 4.02306 9.50782 3.94113M11.6018 3.20127L17.3342 11.7997V7.88706C16.8829 7.72782 16.5037 7.41214 16.2653 6.99732C16.027 6.58249 15.9453 6.09601 16.0352 5.62615L11.6792 3.08662L11.6018 3.20127ZM15.5337 14.6658H4.46227L8.31679 16.9134C8.49809 16.6324 8.74698 16.4014 9.04067 16.2415C9.33436 16.0815 9.6635 15.9977 9.99797 15.9977C10.3324 15.9977 10.6616 16.0815 10.9553 16.2415C11.249 16.4014 11.4978 16.6324 11.6792 16.9134L15.5337 14.6658ZM9.99864 1.33495C9.82177 1.33495 9.65215 1.40517 9.52709 1.53018C9.40202 1.65518 9.33177 1.82471 9.33177 2.00149C9.33177 2.17827 9.40202 2.34781 9.52709 2.47281C9.65215 2.59781 9.82177 2.66803 9.99864 2.66803C10.1755 2.66803 10.3451 2.59781 10.4702 2.47281C10.5952 2.34781 10.6655 2.17827 10.6655 2.00149C10.6655 1.82471 10.5952 1.65518 10.4702 1.53018C10.3451 1.40517 10.1755 1.33495 9.99864 1.33495ZM1.99619 5.3342C1.81932 5.3342 1.6497 5.40443 1.52464 5.52943C1.39958 5.65443 1.32932 5.82397 1.32932 6.00075C1.32932 6.17752 1.39958 6.34706 1.52464 6.47206C1.6497 6.59706 1.81932 6.66729 1.99619 6.66729C2.17305 6.66729 2.34267 6.59706 2.46774 6.47206C2.5928 6.34706 2.66306 6.17752 2.66306 6.00075C2.66306 5.82397 2.5928 5.65443 2.46774 5.52943C2.34267 5.40443 2.17305 5.3342 1.99619 5.3342ZM18.0011 5.3342C17.8242 5.3342 17.6546 5.40443 17.5295 5.52943C17.4045 5.65443 17.3342 5.82397 17.3342 6.00075C17.3342 6.17752 17.4045 6.34706 17.5295 6.47206C17.6546 6.59706 17.8242 6.66729 18.0011 6.66729C18.178 6.66729 18.3476 6.59706 18.4726 6.47206C18.5977 6.34706 18.668 6.17752 18.668 6.00075C18.668 5.82397 18.5977 5.65443 18.4726 5.52943C18.3476 5.40443 18.178 5.3342 18.0011 5.3342ZM1.99619 13.3327C1.81932 13.3327 1.6497 13.4029 1.52464 13.5279C1.39958 13.6529 1.32932 13.8225 1.32932 13.9993C1.32932 14.176 1.39958 14.3456 1.52464 14.4706C1.6497 14.5956 1.81932 14.6658 1.99619 14.6658C2.17305 14.6658 2.34267 14.5956 2.46774 14.4706C2.5928 14.3456 2.66306 14.176 2.66306 13.9993C2.66306 13.8225 2.5928 13.6529 2.46774 13.5279C2.34267 13.4029 2.17305 13.3327 1.99619 13.3327ZM18.0011 13.3327C17.8242 13.3327 17.6546 13.4029 17.5295 13.5279C17.4045 13.6529 17.3342 13.8225 17.3342 13.9993C17.3342 14.176 17.4045 14.3456 17.5295 14.4706C17.6546 14.5956 17.8242 14.6658 18.0011 14.6658C18.178 14.6658 18.3476 14.5956 18.4726 14.4706C18.5977 14.3456 18.668 14.176 18.668 13.9993C18.668 13.8225 18.5977 13.6529 18.4726 13.5279C18.3476 13.4029 18.178 13.3327 18.0011 13.3327ZM9.99864 17.332C9.82177 17.332 9.65215 17.4022 9.52709 17.5272C9.40202 17.6522 9.33177 17.8217 9.33177 17.9985C9.33177 18.1753 9.40202 18.3448 9.52709 18.4698C9.65215 18.5948 9.82177 18.6651 9.99864 18.6651C10.1755 18.6651 10.3451 18.5948 10.4702 18.4698C10.5952 18.3448 10.6655 18.1753 10.6655 17.9985C10.6655 17.8217 10.5952 17.6522 10.4702 17.5272C10.3451 17.4022 10.1755 17.332 9.99864 17.332Z" fill="black"/>
</svg>
