<svg width="20" height="22" viewBox="0 0 20 22" fill="none" xmlns="http://www.w3.org/2000/svg">
<path d="M7 7.98494V16.0289C6.99994 16.3796 6.90769 16.7241 6.7325 17.0278C6.5573 17.3316 6.30533 17.5839 6.00184 17.7596C5.69836 17.9352 5.35402 18.028 5.00337 18.0286C4.65272 18.0292 4.30808 17.9376 4.004 17.7629L2.436 16.8629C1.99725 16.5949 1.63475 16.2186 1.38328 15.7701C1.13182 15.3217 0.999839 14.8161 1 14.3019V7.66694C1.00001 7.15296 1.13207 6.6476 1.38353 6.19932C1.63498 5.75105 1.99739 5.3749 2.436 5.10694L8.436 1.43994C8.90694 1.15223 9.44813 1 10 1C10.5519 1 11.0931 1.15223 11.564 1.43994L17.564 5.10694C18.0028 5.37499 18.3653 5.7513 18.6167 6.19976C18.8682 6.64822 19.0002 7.15379 19 7.66794V14.3019C19 14.8159 18.8679 15.3213 18.6165 15.7696C18.365 16.2178 18.0026 16.594 17.564 16.8619L11.564 20.5289C11.0931 20.8167 10.5519 20.9689 10 20.9689C9.44813 20.9689 8.90694 20.8167 8.436 20.5289" stroke="#555454" stroke-width="2" stroke-linecap="round" stroke-linejoin="round"/>
<path d="M15 7.98486H11.5C11.1022 7.98486 10.7206 8.1429 10.4393 8.4242C10.158 8.70551 10 9.08704 10 9.48486C10 9.88269 10.158 10.2642 10.4393 10.5455C10.7206 10.8268 11.1022 10.9849 11.5 10.9849H13.5C13.8978 10.9849 14.2794 11.1429 14.5607 11.4242C14.842 11.7055 15 12.087 15 12.4849C15 12.8827 14.842 13.2642 14.5607 13.5455C14.2794 13.8268 13.8978 13.9849 13.5 13.9849H10" stroke="#555454" stroke-width="2" stroke-linecap="round" stroke-linejoin="round"/>
</svg>
