<svg width="24" height="24" viewBox="0 0 24 24" fill="none" xmlns="http://www.w3.org/2000/svg">
<path d="M13.74 4.22977C12.9 3.22977 12.17 2.22977 12.03 2.00977H12C11.86 2.21977 11.13 3.22977 10.29 4.22977C3.08998 13.4198 11.43 19.6198 11.43 19.6198L11.5 19.6698C11.56 20.6198 11.72 21.9998 11.72 21.9998H12.34C12.34 21.9998 12.49 20.6298 12.55 19.6698L12.62 19.6098C12.62 19.6098 20.94 13.4198 13.74 4.22977ZM12 19.4798C11.8248 19.3357 11.664 19.1749 11.52 18.9998L12 8.99977L12.45 18.9998C12.3149 19.1732 12.1643 19.3338 12 19.4798Z" fill="black"/>
</svg>
