<svg width="24" height="24" viewBox="0 0 24 24" fill="none" xmlns="http://www.w3.org/2000/svg">
<path d="M10.74 12.8898V12.7798C10.8 12.6298 10.86 12.4898 10.93 12.3498C11.4834 11.1801 11.5763 9.8449 11.19 8.60984C11.1698 8.43346 11.0955 8.26764 10.9774 8.13514C10.8592 8.00265 10.7029 7.90998 10.53 7.86984C9.78601 7.81805 9.04812 8.03446 8.44997 8.47984V8.65984C8.51596 9.46301 8.49585 10.2709 8.38997 11.0698C8.33322 11.4284 8.35962 11.7953 8.46712 12.142C8.57461 12.4888 8.76034 12.8062 9.00997 13.0698C9.19384 13.2655 9.41521 13.422 9.66089 13.5303C9.90657 13.6385 10.1715 13.6962 10.44 13.6998C10.5253 13.4246 10.6255 13.1542 10.74 12.8898ZM9.99997 8.57984C9.94378 8.51618 9.91191 8.43472 9.90997 8.34984C9.92326 8.29968 9.95554 8.25665 9.99997 8.22984C10.1476 8.15324 10.3166 8.12858 10.48 8.15984C10.73 8.15984 10.98 8.31984 10.96 8.49984C10.9226 8.5989 10.8554 8.68388 10.7676 8.74301C10.6798 8.80214 10.5758 8.83249 10.47 8.82984H10.41C10.2457 8.8039 10.0983 8.71403 9.99997 8.57984Z" fill="#555454"/>
<path d="M7.87997 11C7.97008 10.2368 7.99016 9.46692 7.93997 8.70002V8.42002C7.90056 6.76919 8.44603 5.15757 9.47997 3.87002C8.47997 3.55002 6.07997 2.87002 4.60997 3.97002C3.70997 4.61002 3.28997 5.81002 3.37997 7.52002C3.58 9.01384 3.91469 10.4865 4.37997 11.92C5.05997 14.14 5.82997 15.54 6.48997 15.77C6.58997 15.77 6.89997 15.9 7.34997 15.36C7.98997 14.6 8.57997 13.95 8.84997 13.66L8.65997 13.47C8.34677 13.1474 8.11317 12.7561 7.97776 12.3273C7.84235 11.8985 7.80887 11.444 7.87997 11ZM11.38 14.4C11.22 14.34 11.14 14.3 10.96 14.51C10.8529 14.6176 10.7558 14.7348 10.67 14.86C10.32 15.29 10.17 15.44 9.15997 15.65C9.02319 15.6727 8.88913 15.7096 8.75997 15.76C8.87117 15.8379 8.99706 15.8924 9.12997 15.92C9.57747 16.0714 10.0617 16.0754 10.5116 15.9314C10.9615 15.7874 11.3535 15.5031 11.63 15.12C11.6558 15.0653 11.6692 15.0055 11.6692 14.945C11.6692 14.8845 11.6558 14.8247 11.63 14.77C11.5973 14.6191 11.5078 14.4866 11.38 14.4ZM17.67 8.58002C17.7175 8.31923 17.7443 8.05506 17.75 7.79002C17.09 7.71002 16.33 7.72002 16.03 8.15002C15.45 8.98002 16.59 11.03 17.03 11.9C17.1275 12.0539 17.2143 12.2143 17.29 12.38C17.331 12.4875 17.3812 12.5912 17.44 12.69C17.7015 12.0112 17.7572 11.2703 17.6 10.56C17.5521 10.2121 17.5287 9.86123 17.53 9.51002C17.5522 9.19684 17.599 8.88588 17.67 8.58002ZM17.11 8.42002C17.0234 8.50832 16.9116 8.56769 16.79 8.59002H16.73C16.6349 8.59039 16.5419 8.56192 16.4634 8.50835C16.3848 8.45479 16.3244 8.37867 16.29 8.29002C16.29 8.15002 16.49 8.05002 16.73 8.01002C16.97 7.97002 17.21 8.01002 17.23 8.16002C17.2254 8.25902 17.1823 8.35232 17.11 8.42002Z" fill="#555454"/>
<path d="M16.9999 4.87988C17.6587 5.61244 18.129 6.49458 18.3699 7.44988C18.3753 7.49973 18.3753 7.55002 18.3699 7.59988C18.3731 7.95524 18.3429 8.31012 18.2799 8.65988C18.2323 8.94441 18.2022 9.23163 18.1899 9.51988C18.1879 9.8545 18.2113 10.1888 18.2599 10.5199C18.4619 11.4375 18.3345 12.3969 17.8999 13.2299L17.9699 13.3099C20.1899 9.81988 20.9699 5.76988 20.2599 4.87988C19.8051 4.3081 19.2251 3.84844 18.5645 3.53635C17.9039 3.22427 17.1805 3.06809 16.4499 3.07988C15.9023 3.0719 15.3556 3.12557 14.8199 3.23988C15.6594 3.61791 16.4041 4.17814 16.9999 4.87988Z" fill="#555454"/>
<path d="M21.65 14.0002C21.58 13.8002 21.28 13.1502 20.18 13.3802C19.8509 13.4515 19.5164 13.495 19.18 13.5102C20.0832 11.9837 20.7762 10.3422 21.24 8.63022C21.61 7.18022 21.9 5.24022 21.13 4.25022C20.5645 3.53281 19.8403 2.95627 19.0144 2.56588C18.1885 2.17548 17.2833 1.98186 16.37 2.00022C15.5372 1.99429 14.7081 2.11224 13.91 2.35022C13.431 2.26611 12.9462 2.21931 12.46 2.21022C11.5992 2.19253 10.7496 2.40667 10 2.83022C9.42202 2.63886 8.83031 2.49177 8.23 2.39022C7.51695 2.20841 6.77442 2.17317 6.04735 2.28661C5.32028 2.40005 4.62378 2.65983 4 3.05022C2.76 3.92022 2.19 5.44022 2.29 7.57022C2.48101 9.15399 2.81573 10.7171 3.29 12.2402C3.57349 13.1927 3.94509 14.1167 4.4 15.0002C4.72597 15.8128 5.35281 16.4683 6.15 16.8302C6.43915 16.9244 6.74818 16.9397 7.04525 16.8747C7.34231 16.8097 7.61665 16.6666 7.84 16.4602C8.10766 16.7514 8.45566 16.9568 8.84 17.0502C9.6173 17.2644 10.4436 17.2152 11.19 16.9102V17.7202C11.1821 18.5175 11.2865 19.312 11.5 20.0802C11.5028 20.1235 11.5028 20.1669 11.5 20.2102C11.6333 20.6747 11.8769 21.1001 12.21 21.4502C12.6128 21.8271 13.1487 22.0285 13.7 22.0102C13.9357 22.0111 14.1706 21.9843 14.4 21.9302C14.8346 21.8773 15.2542 21.7376 15.6338 21.5194C16.0135 21.3013 16.3454 21.0091 16.61 20.6602C17.2873 19.4405 17.603 18.0529 17.52 16.6602V16.4002H17.69C18.5103 16.457 19.3325 16.32 20.09 16.0002C20.54 15.7702 22 15.0002 21.65 14.0002ZM19.84 15.4702C19.2681 15.7005 18.6565 15.816 18.04 15.8102C17.7731 15.8176 17.5066 15.7839 17.25 15.7102C17.15 16.6502 16.93 18.4002 16.8 19.1302C16.7616 19.7192 16.5136 20.2749 16.1009 20.6968C15.6881 21.1187 15.138 21.3789 14.55 21.4302C14.333 21.4764 14.1118 21.4998 13.89 21.5002C13.4546 21.4901 13.0344 21.3381 12.6933 21.0673C12.3522 20.7966 12.1088 20.4219 12 20.0002C11.7425 18.6632 11.6485 17.2999 11.72 15.9402C11.2332 16.3802 10.596 16.6165 9.94 16.6002C9.62262 16.5943 9.30707 16.5507 9 16.4702C8.91 16.4702 8.13 16.2402 8.14 15.7402C8.15 15.2402 8.8 15.1502 9.04 15.1002C9.9 14.9202 9.96 14.8502 10.23 14.5102C10.2892 14.427 10.3526 14.3469 10.42 14.2702C10.032 14.2557 9.65247 14.1531 9.31 13.9702C9.08 14.2202 8.45 14.9002 7.77 15.7102C7.64641 15.894 7.48181 16.0466 7.28919 16.1559C7.09656 16.2653 6.88117 16.3283 6.66 16.3402C6.54396 16.3573 6.42604 16.3573 6.31 16.3402C5.43 16.0002 4.6 14.5502 3.84 12.0002C3.36699 10.5245 3.03221 9.00795 2.84 7.47022C2.74 5.55022 3.24 4.19022 4.31 3.47022C6.23 2.11022 9.31 3.16022 10.01 3.41022C10.7222 2.93851 11.5668 2.70722 12.42 2.75022C12.8924 2.75093 13.3628 2.81141 13.82 2.93022C14.6246 2.65618 15.47 2.52091 16.32 2.53022C17.1456 2.50752 17.9652 2.67627 18.7147 3.02325C19.4642 3.37023 20.1232 3.88602 20.64 4.53022C21.33 5.41022 20.87 7.53022 20.64 8.42022C20.1275 10.3396 19.3141 12.1655 18.23 13.8302C18.39 13.9402 18.88 14.1402 20.23 13.8302C20.69 13.7302 20.96 13.8302 21.05 14.0802C21.27 14.6302 20.35 15.2102 19.84 15.4502V15.4702Z" fill="#555454"/>
<path d="M17.43 13.5898C17.1752 13.2889 16.9663 12.9519 16.81 12.5898C16.81 12.5198 16.69 12.3498 16.58 12.1598C16 11.1598 14.79 8.9398 15.58 7.8198C15.846 7.537 16.1832 7.33109 16.5563 7.22375C16.9293 7.1164 17.3244 7.11159 17.7 7.2098C17.4425 6.50069 17.0598 5.84359 16.57 5.2698C16.0703 4.65413 15.4413 4.15584 14.7276 3.81023C14.0139 3.46461 13.2329 3.28011 12.44 3.2698C11.9721 3.24031 11.5032 3.30965 11.0639 3.47333C10.6245 3.63701 10.2246 3.89135 9.89001 4.2198C9.03858 5.22284 8.55213 6.48479 8.51001 7.7998L8.66001 7.7198C9.07577 7.49554 9.53063 7.35298 10 7.2998C10.1943 7.25481 10.3957 7.25036 10.5917 7.28674C10.7878 7.32311 10.9742 7.39953 11.1394 7.51121C11.3045 7.62288 11.4449 7.76743 11.5517 7.93581C11.6585 8.10419 11.7294 8.29278 11.76 8.4898C12.1711 9.84223 12.0679 11.2989 11.47 12.5798C11.4042 12.7056 11.3474 12.8359 11.3 12.9698V13.0798C11.2 13.3498 11.11 13.5998 11.05 13.8098C11.2427 13.7731 11.442 13.7976 11.62 13.8798C11.7704 13.9514 11.9037 14.0545 12.0106 14.1822C12.1176 14.3099 12.1959 14.4592 12.24 14.6198V14.7798C12.2445 14.8096 12.2445 14.84 12.24 14.8698C12.1321 16.5062 12.2059 18.1496 12.46 19.7698C12.505 19.9814 12.5953 20.1808 12.7247 20.3543C12.854 20.5278 13.0194 20.6712 13.2093 20.7747C13.3993 20.8783 13.6095 20.9395 13.8254 20.9542C14.0412 20.9689 14.2577 20.9367 14.46 20.8598C14.9362 20.8277 15.3833 20.6194 15.7142 20.2755C16.0452 19.9316 16.2362 19.4768 16.25 18.9998C16.4 18.1198 16.7 15.6498 16.74 15.1198C16.74 14.0598 17.26 13.8498 17.58 13.7598L17.43 13.5898Z" fill="#555454"/>
<path d="M18.0001 14.33L17.9201 14.27H17.8001C17.5401 14.34 17.3001 14.41 17.3301 15.07C17.6252 15.1871 17.9449 15.2283 18.2601 15.19C18.7329 15.17 19.1992 15.072 19.6401 14.9C19.9292 14.7695 20.1959 14.594 20.4301 14.38C19.6405 14.6569 18.7775 14.6391 18.0001 14.33Z" fill="#555454"/>
</svg>
