<svg width="6" height="13" viewBox="0 0 6 13" fill="none" xmlns="http://www.w3.org/2000/svg">
<path d="M5.88989 5.17563C5.18646 2.15313 3.5236 1.15971 3.34496 0.78C3.18913 0.566583 3.05001 0.26325 2.93592 0C2.91589 0.268125 2.90531 0.371042 2.64486 0.641333C2.24251 0.947917 0.175059 2.63575 0.00699255 6.06883C-0.149944 9.27117 2.3833 11.1795 2.72723 11.4227L2.76618 11.4498C2.83773 11.9653 2.89896 12.4821 2.94983 13H3.21752C3.28148 12.4411 3.37622 11.886 3.50134 11.3371C3.7334 11.1768 3.83747 11.0863 3.97437 10.9617C4.62274 10.378 5.13802 9.66831 5.48686 8.87857C5.83571 8.08883 6.01036 7.23662 5.99953 6.37704C6.00509 5.93613 5.9422 5.47679 5.88989 5.17563ZM2.92034 9.61458C2.92034 9.61458 2.92034 5.12363 3.07338 5.12417C3.19192 5.12417 3.34607 10.9173 3.34607 10.9173C3.13404 10.8929 2.92034 9.96396 2.92034 9.61458Z" fill="#555454"/>
</svg>
