<svg width="24" height="24" viewBox="0 0 24 24" fill="none" xmlns="http://www.w3.org/2000/svg">
<path d="M23.9749 14.7225C23.9608 14.6802 23.941 14.6398 23.9158 14.6025C23.7708 14.3392 23.4231 14.2622 22.8727 14.3715C21.1594 14.7115 20.4964 14.5015 20.2561 14.3515C21.6462 12.3035 22.7888 9.82951 23.4062 7.52151C23.6879 6.47151 24.2328 3.99851 23.5326 2.79151C23.488 2.70862 23.436 2.62965 23.3772 2.55551C22.0409 0.909514 20.08 0.0245138 17.7079 0.000513843C16.1592 -0.0154862 14.8385 0.346514 14.4801 0.479514C14.3027 0.447691 14.1245 0.420348 13.9456 0.397514C13.497 0.319162 13.0424 0.276685 12.5865 0.270514C11.3621 0.251514 10.3045 0.534514 9.42714 1.11051C8.54043 0.789514 4.46843 -0.534486 1.94816 1.18951C0.538347 2.15251 -0.110106 3.87251 0.0152337 6.30351C0.0577043 7.12151 0.540419 9.63751 1.30282 12.0475C1.77932 13.5542 2.27412 14.7482 2.78722 15.6295C3.3604 16.6248 3.95223 17.2215 4.5627 17.4195C5.02677 17.5675 5.73634 17.5625 6.48734 16.6905C7.13881 15.9383 7.81063 15.2027 8.50211 14.4845C8.95271 14.7195 9.4406 14.8465 9.94196 14.8615V14.8655C9.8548 14.9657 9.7695 15.0674 9.6861 15.1705C9.33494 15.6005 9.2614 15.6905 8.1323 15.9155C7.81118 15.9795 6.95763 16.1485 6.94519 16.7265C6.94336 16.842 6.97609 16.9555 7.03946 17.0535C7.2746 17.4765 7.99453 17.6635 8.09087 17.6865C9.47375 18.0195 10.6857 17.7785 11.5838 17.0075C11.5662 19.2385 11.6636 21.4255 11.9412 22.0955C12.1701 22.6485 12.7305 23.9995 14.4998 23.9995C14.7588 24.0002 15.045 23.9688 15.3585 23.9055C17.2044 23.5235 18.0062 22.7355 18.3159 20.9995C18.4713 20.1295 18.7323 18.1245 18.8743 16.8985C18.8919 16.8285 18.9115 16.7785 18.9333 16.7625C18.9333 16.7625 19.0058 16.7145 19.3756 16.7925L19.4212 16.7995L19.6843 16.8215L19.6998 16.8225C20.5772 16.8615 21.6794 16.6805 22.3216 16.3925C22.9887 16.0925 24.1934 15.3595 23.9749 14.7225ZM2.02482 11.8755C1.25413 9.44051 0.804566 6.99051 0.769346 6.30451C0.656436 4.13251 1.2013 2.62151 2.38737 1.81151C4.29026 0.512514 7.40098 1.27151 8.71446 1.68151L8.7041 1.69151C6.60854 3.73351 6.65826 7.22551 6.66551 7.43951C6.66551 7.52151 6.67173 7.63851 6.68208 7.79951C6.7173 8.38551 6.78567 9.47951 6.60543 10.7175C6.43969 11.8675 6.80639 12.9935 7.61333 13.8065C7.6962 13.8905 7.78321 13.9695 7.87437 14.0435C7.51492 14.4145 6.73491 15.2365 5.90311 16.2015C5.31474 16.8835 4.90868 16.7525 4.77609 16.7095C4.37003 16.5795 3.93392 16.1225 3.49264 15.3875C2.99543 14.5485 2.4951 13.3555 2.02689 11.8755M8.24935 16.9635C8.09197 16.9256 7.9412 16.8657 7.80186 16.7855C7.89405 16.7465 8.04736 16.6955 8.30218 16.6455C9.63224 16.3805 9.83734 16.1945 10.2859 15.6455C10.4071 15.4935 10.5339 15.3457 10.666 15.2025C10.6998 15.1642 10.7258 15.1201 10.7427 15.0725C10.9188 14.9215 11.0244 14.9625 11.1943 15.0305C11.3559 15.0955 11.5134 15.2905 11.5776 15.5055C11.6087 15.6075 11.6418 15.8005 11.531 15.9505C10.5946 17.2165 9.22929 17.2005 8.24935 16.9635ZM10.4185 12.9755L10.3646 13.1155C10.2268 13.4725 10.0984 13.8045 10.0186 14.1195C9.32769 14.1175 8.65438 13.8315 8.1437 13.3165C7.49317 12.6615 7.19795 11.7505 7.33261 10.8165C7.52217 9.50851 7.45277 8.36951 7.41548 7.75751L7.40201 7.53751C7.70863 7.27551 9.12777 6.54151 10.1398 6.76551C10.6018 6.86751 10.8836 7.17151 10.9996 7.69351C11.6056 10.3975 11.0804 11.5235 10.6577 12.4295C10.5721 12.6089 10.4927 12.791 10.4195 12.9755M18.0476 17.5475C18.0311 17.7248 18.0097 17.9235 17.9834 18.1435L17.8322 18.5815C17.8209 18.6165 17.8146 18.6529 17.8135 18.6895C17.8073 19.1645 17.7576 19.3385 17.6944 19.5595C17.5916 19.904 17.529 20.2586 17.5079 20.6165C17.394 22.0305 16.5985 22.8435 15.0043 23.1725C13.4349 23.4975 13.1563 22.6765 12.9118 21.9515C12.8862 21.8754 12.8593 21.7997 12.831 21.7245C12.6083 21.1385 12.6342 20.3125 12.6684 19.1695C12.6849 18.6085 12.6425 17.2685 12.3265 16.5235C12.3307 16.2302 12.3372 15.9328 12.3462 15.6315C12.3463 15.5933 12.3407 15.5552 12.3296 15.5185C12.3183 15.4484 12.3031 15.379 12.2841 15.3105C12.1577 14.8825 11.849 14.5245 11.4761 14.3755C11.329 14.3165 11.0586 14.2085 10.7334 14.2885C10.8028 14.0125 10.9229 13.7015 11.0535 13.3635L11.1084 13.2215C11.1705 13.0615 11.2472 12.8965 11.329 12.7215C11.7703 11.7735 12.3752 10.4755 11.7185 7.54351C11.473 6.44551 10.6515 5.90951 9.40642 6.03351C8.66059 6.10851 7.97692 6.39951 7.63612 6.56551C7.56778 6.59897 7.5001 6.63364 7.43309 6.66951C7.52839 5.56351 7.88783 3.49551 9.23136 2.18751C9.33102 2.0904 9.43579 1.99828 9.54523 1.91151C9.5997 1.90155 9.65109 1.87965 9.69543 1.84751C10.4744 1.27751 11.4512 0.997514 12.5979 1.01451C13.0233 1.02118 13.4287 1.04818 13.814 1.09551C15.8236 1.45051 17.1744 2.54251 17.9948 3.47851C18.838 4.44051 19.2948 5.40951 19.4771 5.93251C18.1067 5.79851 17.1744 6.05951 16.701 6.71251C15.6734 8.13051 17.2645 10.8845 18.029 12.2085C18.1688 12.4505 18.29 12.6605 18.3284 12.7485C18.577 13.3315 18.8991 13.7205 19.1343 14.0045C19.2068 14.0915 19.2772 14.1755 19.33 14.2495C18.9157 14.3655 18.1699 14.6325 18.2372 15.9665C18.2115 16.2385 18.1825 16.5102 18.1502 16.7815C18.1025 16.9895 18.0787 17.2415 18.0476 17.5475ZM18.9685 15.9265C18.9271 15.0945 19.2482 15.0075 19.5869 14.9165L19.7268 14.8755C19.77 14.9136 19.8164 14.948 19.8656 14.9785C20.456 15.3545 21.5054 15.3995 22.9804 15.1125C22.7712 15.2895 22.4428 15.5125 21.9933 15.7135C21.5686 15.9035 20.8579 16.0465 20.1836 16.0775C19.4378 16.1115 19.0586 15.9975 18.9685 15.9265ZM19.559 6.65551C19.5476 6.99127 19.5113 7.3258 19.4502 7.65651C19.3932 8.01451 19.3342 8.38451 19.3186 8.83351C19.3041 9.26951 19.3601 9.72351 19.415 10.1635C19.5258 11.0505 19.6387 11.9635 19.2006 12.8645C19.1286 12.7396 19.0636 12.6111 19.0058 12.4795C18.9029 12.2692 18.7906 12.0634 18.6692 11.8625C18.0311 10.7585 16.5384 8.17251 17.3018 7.11851C17.6954 6.57551 18.6919 6.55251 19.559 6.65551ZM19.7951 13.6685L19.7071 13.5615L19.6708 13.5175C20.4229 12.3175 20.2758 11.1305 20.1442 10.0785C20.0904 9.64651 20.0406 9.23851 20.0531 8.85651C20.0665 8.44951 20.1214 8.10151 20.1753 7.76451C20.2416 7.34951 20.31 6.92051 20.2903 6.41451C20.3049 6.35222 20.3091 6.28808 20.3027 6.22451C20.2551 5.73851 19.6812 4.28651 18.5107 2.97151C17.7478 2.10352 16.7975 1.40723 15.7263 0.931514C16.4156 0.795827 17.1184 0.733455 17.8218 0.745514C19.9474 0.791514 21.6286 1.55951 22.8188 3.02851C22.844 3.06047 22.8672 3.09387 22.8882 3.12851C23.6372 4.48451 22.6034 9.40351 19.7951 13.6685ZM10.6619 7.55251C10.636 7.73251 10.3408 7.97551 10.0186 7.97551L9.93471 7.96951C9.72449 7.93361 9.53673 7.82077 9.41056 7.65451C9.36291 7.59451 9.28626 7.47651 9.30076 7.36951C9.30536 7.33962 9.31628 7.31097 9.33286 7.28533C9.34943 7.25969 9.3713 7.23763 9.3971 7.22051C9.51933 7.13151 9.76172 7.09851 10.029 7.13451C10.3563 7.17851 10.694 7.32751 10.6609 7.55251M18.8753 7.14151C18.8867 7.22151 18.8245 7.34151 18.7168 7.45151C18.6054 7.56892 18.4567 7.64735 18.2942 7.67451L18.2165 7.67951C17.913 7.67951 17.6561 7.44551 17.6364 7.30851C17.6115 7.13151 17.9099 6.99851 18.2165 6.95651C18.5252 6.91451 18.8504 6.96551 18.8753 7.14151Z" fill="black"/>
</svg>
