<svg width="21" height="19" viewBox="0 0 21 19" fill="none" xmlns="http://www.w3.org/2000/svg">
<path d="M10.5 10.8695C10.1022 10.8695 9.72064 10.7114 9.43934 10.4301C9.15804 10.1488 9 9.76728 9 9.36945C9 8.97163 9.15804 8.5901 9.43934 8.30879C9.72064 8.02749 10.1022 7.86945 10.5 7.86945C10.8978 7.86945 11.2794 8.02749 11.5607 8.30879C11.842 8.5901 12 8.97163 12 9.36945C12 9.76728 11.842 10.1488 11.5607 10.4301C11.2794 10.7114 10.8978 10.8695 10.5 10.8695ZM9.972 13.8635C10.1467 14.0741 10.3227 14.2771 10.5 14.4725C10.6773 14.2778 10.8533 14.0748 11.028 13.8635C10.676 13.8709 10.324 13.8709 9.972 13.8635ZM7.977 13.7385C7.20917 13.6582 6.44634 13.5357 5.692 13.3715C5.61667 13.7215 5.56 14.0598 5.522 14.3865C5.332 15.9695 5.597 16.9315 6 17.1635C6.403 17.3955 7.368 17.1445 8.645 16.1895C8.90833 15.9921 9.173 15.7738 9.439 15.5345C8.919 14.9631 8.43093 14.3636 7.977 13.7385ZM15.308 13.3715C14.5537 13.5357 13.7908 13.6582 13.023 13.7385C12.5691 14.3636 12.081 14.9631 11.561 15.5345C11.8277 15.7745 12.0923 15.9928 12.355 16.1895C13.632 17.1445 14.597 17.3965 15 17.1635C15.403 16.9315 15.667 15.9695 15.479 14.3865C15.4382 14.0457 15.3805 13.7069 15.308 13.3715ZM16.759 12.9835C17.336 15.6225 17.033 17.7235 15.751 18.4635C14.469 19.2035 12.498 18.4155 10.501 16.5965C8.504 18.4155 6.533 19.2025 5.251 18.4625C3.969 17.7225 3.666 15.6225 4.242 12.9825C1.667 12.1635 0 10.8495 0 9.36945C0 7.88945 1.667 6.57645 4.241 5.75645C3.665 3.11645 3.968 1.01645 5.25 0.276451C6.532 -0.463549 8.503 0.323451 10.5 2.14245C12.497 0.323451 14.468 -0.463549 15.75 0.276451C17.032 1.01645 17.335 3.11645 16.759 5.75645C19.332 6.57645 20.999 7.88945 20.999 9.36945C20.999 10.8495 19.332 12.1635 16.759 12.9835ZM9.438 3.20445C9.17267 2.96512 8.90833 2.74678 8.645 2.54945C7.368 1.59445 6.403 1.34245 5.999 1.57545C5.596 1.80745 5.332 2.76945 5.52 4.35345C5.56 4.68012 5.61667 5.01845 5.69 5.36845C6.44465 5.20384 7.20781 5.08098 7.976 5.00045C8.452 4.34645 8.93933 3.74778 9.438 3.20445ZM13.023 5.00045C13.7909 5.08102 14.5537 5.20387 15.308 5.36845C15.3833 5.01779 15.44 4.67945 15.478 4.35345C15.668 2.76945 15.403 1.80745 15 1.57545C14.597 1.34345 13.632 1.59445 12.355 2.54945C12.0917 2.74678 11.827 2.96512 11.561 3.20445C12.0597 3.74778 12.547 4.34645 13.023 5.00045ZM11.028 4.87545C10.8533 4.66478 10.6773 4.46178 10.5 4.26645C10.3233 4.46178 10.1473 4.66478 9.972 4.87545C10.324 4.86802 10.676 4.86802 11.028 4.87545ZM6.872 12.0735C6.68959 11.7725 6.51355 11.4678 6.344 11.1595C6.24867 11.4161 6.161 11.6701 6.081 11.9215C6.33833 11.9768 6.60167 12.0275 6.871 12.0735M8.803 12.3075C9.93213 12.3909 11.0659 12.3909 12.195 12.3075C12.8322 11.3712 13.3994 10.3892 13.892 9.36945C13.3998 8.3497 12.8329 7.3677 12.196 6.43145C11.0669 6.34796 9.93313 6.34796 8.804 6.43145C8.16712 7.3677 7.60024 8.3497 7.108 9.36945C7.60024 10.3892 8.16712 11.3712 8.804 12.3075M14.656 7.57945C14.7513 7.32278 14.839 7.06912 14.919 6.81845C14.6568 6.76157 14.3934 6.71056 14.129 6.66545C14.3111 6.96638 14.4868 7.27111 14.656 7.57945ZM4.63 7.20645C4.29 7.31645 3.96867 7.43645 3.666 7.56645C2.201 8.19445 1.5 8.90445 1.5 9.36945C1.5 9.83445 2.2 10.5445 3.666 11.1725C3.96867 11.3025 4.29 11.4225 4.63 11.5325C4.852 10.8325 5.127 10.1065 5.455 9.36945C5.14044 8.66417 4.86502 7.94207 4.63 7.20645ZM6.08 6.81845C6.16067 7.06845 6.24867 7.32178 6.344 7.57845C6.51356 7.27044 6.6896 6.96604 6.872 6.66545C6.602 6.71145 6.33733 6.76245 6.08 6.81845ZM16.371 11.5325C16.711 11.4225 17.0323 11.3025 17.335 11.1725C18.799 10.5445 19.499 9.83445 19.499 9.36945C19.499 8.90445 18.799 8.19445 17.333 7.56645C17.0303 7.43645 16.7087 7.31645 16.368 7.20645C16.148 7.90645 15.872 8.63245 15.544 9.36945C15.872 10.1065 16.147 10.8325 16.369 11.5325M14.919 11.9215C14.8377 11.6701 14.7497 11.4161 14.655 11.1595C14.4855 11.4678 14.3094 11.7725 14.127 12.0735C14.397 12.0268 14.6617 11.9761 14.919 11.9215Z" fill="#555454"/>
</svg>
