<svg width="16" height="14" viewBox="0 0 16 14" fill="none" xmlns="http://www.w3.org/2000/svg">
<path d="M13.8462 0H2.15385C0.966154 0 0 0.999091 0 2.22727V11.7727C0 13.0009 0.966154 14 2.15385 14H13.8462C15.0338 14 16 13.0009 16 11.7727V2.22727C16 0.999091 15.0338 0 13.8462 0ZM7.82031 4.90509C7.76305 4.96415 7.69511 5.01096 7.62035 5.04284C7.54559 5.07472 7.46548 5.09106 7.38462 5.09091H6.15385V9.54545C6.15385 9.71423 6.08901 9.87609 5.9736 9.99543C5.8582 10.1148 5.70167 10.1818 5.53846 10.1818C5.37525 10.1818 5.21873 10.1148 5.10332 9.99543C4.98791 9.87609 4.92308 9.71423 4.92308 9.54545V5.09091H3.69231C3.5291 5.09091 3.37257 5.02386 3.25717 4.90452C3.14176 4.78518 3.07692 4.62332 3.07692 4.45455C3.07692 4.28577 3.14176 4.12391 3.25717 4.00457C3.37257 3.88523 3.5291 3.81818 3.69231 3.81818H7.38462C7.50649 3.81796 7.62568 3.85516 7.72708 3.92506C7.82848 3.99497 7.90753 4.09444 7.9542 4.21086C8.00086 4.32729 8.01305 4.45541 7.98922 4.57901C7.96538 4.7026 7.90659 4.81609 7.82031 4.90509ZM10.9231 5.25255C10.8249 5.15161 10.6923 5.09449 10.5538 5.09345H10.3742C10.2812 5.09407 10.19 5.1202 10.1099 5.16916C10.0299 5.21813 9.96387 5.28818 9.91857 5.37217C9.87327 5.45615 9.85033 5.55106 9.85209 5.64721C9.85386 5.74336 9.88026 5.83731 9.92862 5.91945C9.97845 6.0063 10.0521 6.07585 10.1403 6.11927L11.3415 6.74164C11.6935 6.92618 11.9754 7.22655 12.1415 7.59691C12.2687 7.8727 12.3261 8.17732 12.3085 8.48229C12.2909 8.78727 12.1988 9.08265 12.0408 9.34084C11.8829 9.59902 11.6642 9.81158 11.4052 9.95865C11.1462 10.1057 10.8554 10.1825 10.56 10.1818H10.3803C9.91508 10.1818 9.46831 9.98964 9.13846 9.64982C8.97398 9.48179 8.84312 9.28189 8.75337 9.06154C8.66362 8.8412 8.61673 8.60473 8.61539 8.36564C8.6144 8.19207 8.67755 8.02466 8.79193 7.89763C8.90631 7.7706 9.06328 7.69353 9.23077 7.68218C9.3093 7.67677 9.38806 7.68835 9.46201 7.71618C9.53597 7.74401 9.60351 7.78748 9.66031 7.84382C9.71768 7.89863 9.76373 7.96489 9.79567 8.03861C9.82761 8.11232 9.84479 8.19196 9.84615 8.27273C9.83765 8.3507 9.84472 8.42965 9.86695 8.50467C9.88917 8.5797 9.92607 8.64921 9.97534 8.70887C10.0246 8.76854 10.0852 8.81711 10.1534 8.85155C10.2216 8.88599 10.2959 8.90557 10.3717 8.90909H10.5514C10.6444 8.90847 10.7355 8.88235 10.8156 8.83338C10.8956 8.78442 10.9617 8.71437 11.007 8.63038C11.0523 8.54639 11.0752 8.45148 11.0734 8.35533C11.0717 8.25918 11.0453 8.16524 10.9969 8.08309C10.9471 7.99625 10.8734 7.92669 10.7852 7.88327L9.584 7.25709C9.23198 7.07347 8.95011 6.77246 8.78395 6.40272C8.61779 6.03298 8.57705 5.6161 8.66831 5.21945C8.75992 4.82261 8.97747 4.46895 9.28623 4.21495C9.595 3.96095 9.97716 3.82126 10.3717 3.81818H10.5514C11.0169 3.81919 11.463 4.01086 11.7922 4.35124C12.1214 4.69163 12.3067 5.15299 12.3077 5.63436C12.3102 5.80837 12.2475 5.97665 12.1329 6.10401C12.0182 6.23138 11.8603 6.30799 11.6923 6.31782C11.6138 6.32323 11.535 6.31165 11.4611 6.28382C11.3871 6.25599 11.3196 6.21252 11.2628 6.15618C11.2054 6.10137 11.1593 6.03511 11.1274 5.96139C11.0955 5.88768 11.0783 5.80804 11.0769 5.72727V5.63436C11.0759 5.49118 11.0207 5.3541 10.9231 5.25255Z" fill="#555454"/>
</svg>
