<svg width="17" height="14" viewBox="0 0 17 14" fill="none" xmlns="http://www.w3.org/2000/svg">
<path d="M12.9004 7.59691C13.0798 7.96634 13.1257 8.3839 13.0308 8.78191C12.9358 9.17993 12.7056 9.53508 12.3773 9.78982C12.0477 10.0433 11.6401 10.1814 11.22 10.1818H11.0291C10.5348 10.1818 10.0601 9.99091 9.70962 9.64982C9.53485 9.48179 9.39581 9.28189 9.30045 9.06154C9.20509 8.8412 9.15527 8.60473 9.15385 8.36564C9.15216 8.19189 9.21905 8.02414 9.3407 7.89698C9.46236 7.76981 9.62951 7.69293 9.80769 7.68218C9.89113 7.67677 9.97481 7.68835 10.0534 7.71618C10.132 7.74401 10.2037 7.78748 10.2641 7.84382C10.325 7.89863 10.374 7.96489 10.4079 8.03861C10.4418 8.11232 10.4601 8.19196 10.4615 8.27273C10.4525 8.3507 10.46 8.42965 10.4836 8.50467C10.5072 8.5797 10.5464 8.64921 10.5988 8.70887C10.6512 8.76854 10.7156 8.81711 10.788 8.85155C10.8604 8.88599 10.9394 8.90557 11.0199 8.90909H11.2108C11.3095 8.90808 11.4061 8.88171 11.4909 8.83265C11.5757 8.7836 11.6457 8.7136 11.6937 8.62975C11.7418 8.5459 11.7662 8.45117 11.7646 8.35517C11.7629 8.25917 11.7352 8.16531 11.6842 8.08309C11.6313 7.99625 11.553 7.92669 11.4593 7.88327L10.183 7.25709C9.80897 7.07347 9.50949 6.77246 9.33295 6.40272C9.1564 6.03298 9.11312 5.6161 9.21008 5.21945C9.30572 4.82175 9.53642 4.46707 9.86485 4.21278C10.1933 3.95849 10.6002 3.81946 11.0199 3.81818H11.2108C11.7054 3.81919 12.1795 4.01086 12.5292 4.35124C12.879 4.69163 13.0759 5.15299 13.0769 5.63436C13.078 5.80793 13.0109 5.97534 12.8893 6.10237C12.7678 6.2294 12.601 6.30647 12.4231 6.31782C12.2973 6.32613 12.1719 6.29618 12.0644 6.2321C11.9569 6.16803 11.8724 6.073 11.8228 5.96018C11.79 5.88653 11.7718 5.80751 11.7692 5.72727V5.63436C11.7675 5.49142 11.7084 5.35479 11.6046 5.25371C11.5007 5.15263 11.3603 5.09511 11.2135 5.09345H11.0225C10.9239 5.09447 10.8273 5.12084 10.7425 5.16989C10.6577 5.21895 10.5877 5.28895 10.5396 5.3728C10.4916 5.45665 10.4672 5.55137 10.4688 5.64737C10.4705 5.74337 10.4982 5.83723 10.5492 5.91945C10.6041 6.00685 10.6791 6.07345 10.7741 6.11927L12.0504 6.74164C12.4244 6.92618 12.7238 7.22655 12.9004 7.59691ZM3.92308 3.81818C3.74967 3.81818 3.58336 3.88523 3.46074 4.00457C3.33812 4.12391 3.26923 4.28577 3.26923 4.45455C3.26923 4.62332 3.33812 4.78518 3.46074 4.90452C3.58336 5.02386 3.74967 5.09091 3.92308 5.09091H5.23077V9.54545C5.23077 9.71423 5.29966 9.87609 5.42228 9.99543C5.5449 10.1148 5.7112 10.1818 5.88462 10.1818C6.05803 10.1818 6.22433 10.1148 6.34695 9.99543C6.46957 9.87609 6.53846 9.71423 6.53846 9.54545V5.09091H7.84615C8.01956 5.09091 8.18587 5.02386 8.30849 4.90452C8.43111 4.78518 8.5 4.62332 8.5 4.45455C8.5 4.28577 8.43111 4.12391 8.30849 4.00457C8.18587 3.88523 8.01956 3.81818 7.84615 3.81818H3.92308ZM2.28846 0C1.68152 0 1.09944 0.234659 0.670275 0.652353C0.241105 1.07005 0 1.63656 0 2.22727V11.7727C0 13.0022 1.02523 14 2.28846 14H14.7115C15.3185 14 15.9006 13.7653 16.3297 13.3476C16.7589 12.93 17 12.3634 17 11.7727V2.22727C17 1.63656 16.7589 1.07005 16.3297 0.652353C15.9006 0.234659 15.3185 0 14.7115 0H2.28846ZM1.30769 2.22727C1.30769 1.97411 1.41102 1.73132 1.59495 1.55231C1.77888 1.3733 2.02835 1.27273 2.28846 1.27273H14.7115C14.9717 1.27273 15.2211 1.3733 15.405 1.55231C15.589 1.73132 15.6923 1.97411 15.6923 2.22727V11.7727C15.6923 12.0259 15.589 12.2687 15.405 12.4477C15.2211 12.6267 14.9717 12.7273 14.7115 12.7273H2.28846C2.02835 12.7273 1.77888 12.6267 1.59495 12.4477C1.41102 12.2687 1.30769 12.0259 1.30769 11.7727V2.22727Z" fill="black"/>
</svg>
