<svg width="10" height="20" viewBox="0 0 10 20" fill="none" xmlns="http://www.w3.org/2000/svg">
<path d="M6.73998 2.22977C5.89998 1.22977 5.16998 0.229766 5.02998 0.00976562H4.99998C4.85998 0.219766 4.12998 1.22977 3.28998 2.22977C-3.91002 11.4198 4.42998 17.6198 4.42998 17.6198L4.49998 17.6698C4.55998 18.6198 4.71998 19.9998 4.71998 19.9998H5.33998C5.33998 19.9998 5.48998 18.6298 5.54998 17.6698L5.61998 17.6098C5.61998 17.6098 13.94 11.4198 6.73998 2.22977ZM4.99998 17.4798C4.8248 17.3357 4.66405 17.1749 4.51998 16.9998L4.99998 6.99977L5.44998 16.9998C5.31494 17.1732 5.16432 17.3338 4.99998 17.4798Z" fill="#555454"/>
</svg>
