<svg width="10" height="12" viewBox="0 0 10 12" fill="none" xmlns="http://www.w3.org/2000/svg">
<path d="M9.34789 10.8489C9.12285 11.0739 8.81764 11.2003 8.49939 11.2003C8.18114 11.2003 7.87593 11.0739 7.65089 10.8489L4.99989 7.81887L2.34889 10.8479C2.23779 10.9608 2.10544 11.0506 1.95946 11.1121C1.81349 11.1736 1.65677 11.2056 1.49837 11.2063C1.33996 11.2069 1.18299 11.1762 1.03652 11.1159C0.890045 11.0555 0.756964 10.9668 0.644952 10.8548C0.53294 10.7428 0.444215 10.6097 0.383892 10.4632C0.32357 10.3168 0.292845 10.1598 0.29349 10.0014C0.294135 9.84298 0.326137 9.68627 0.38765 9.54029C0.449164 9.39432 0.53897 9.26196 0.651891 9.15087L3.40989 6.00087L0.650891 2.84887C0.537971 2.73777 0.448164 2.60542 0.38665 2.45944C0.325137 2.31346 0.293135 2.15675 0.29249 1.99834C0.291845 1.83994 0.32257 1.68297 0.382893 1.5365C0.443215 1.39002 0.531941 1.25694 0.643952 1.14493C0.755964 1.03292 0.889045 0.944191 1.03552 0.883869C1.18199 0.823547 1.33896 0.792822 1.49737 0.793467C1.65577 0.794112 1.81249 0.826114 1.95846 0.887627C2.10444 0.94914 2.23679 1.03895 2.34789 1.15187L4.99989 4.18287L7.65089 1.15187C7.76199 1.03895 7.89434 0.94914 8.04032 0.887627C8.1863 0.826114 8.34301 0.794112 8.50141 0.793467C8.65982 0.792822 8.81679 0.823547 8.96326 0.883869C9.10974 0.944191 9.24282 1.03292 9.35483 1.14493C9.46684 1.25694 9.55557 1.39002 9.61589 1.5365C9.67621 1.68297 9.70694 1.83994 9.70629 1.99834C9.70565 2.15675 9.67364 2.31346 9.61213 2.45944C9.55062 2.60542 9.46081 2.73777 9.34789 2.84887L6.58989 6.00087L9.34789 9.15087C9.45946 9.26232 9.54797 9.39466 9.60836 9.54034C9.66875 9.68602 9.69983 9.84217 9.69983 9.99987C9.69983 10.1576 9.66875 10.3137 9.60836 10.4594C9.54797 10.6051 9.45946 10.7374 9.34789 10.8489Z" fill="#F0EFEE"/>
</svg>
