<svg width="40" height="40" viewBox="0 0 40 40" fill="none" xmlns="http://www.w3.org/2000/svg">
<circle cx="20" cy="20" r="20" fill="#161616"/>
<path d="M9.73559 12.0895C9.74018 10.8983 10.7095 9.93634 11.9007 9.94092V9.94092L11.8743 16.8036V16.8036C10.6831 16.799 9.72119 15.8297 9.72577 14.6385L9.73559 12.0895Z" fill="#FAFAFA"/>
<path d="M9.7002 21.3052V21.3052C9.7052 20.0057 10.7627 18.9563 12.0622 18.9613L14.4151 18.9704L14.406 21.3233L9.7002 21.3052Z" fill="#FAFAFA"/>
<path d="M11.8923 12.0977L11.9006 9.94081L23.6653 9.98611C24.8565 9.9907 25.8184 10.9601 25.8138 12.1513V12.1513L11.8923 12.0977Z" fill="#FAFAFA"/>
<path d="M11.8743 16.8037L11.8826 14.6469L24.7256 14.6963C25.3212 14.6986 25.8022 15.1833 25.7999 15.7789V15.7789C25.7976 16.3745 25.3129 16.8555 24.7173 16.8532L11.8743 16.8037Z" fill="#FAFAFA"/>
<path d="M14.415 18.9702V18.9702C15.6062 18.9748 16.5682 19.9442 16.5636 21.1354L16.5545 23.4883L14.3977 23.48L14.415 18.9702Z" fill="#FAFAFA"/>
<path d="M9.7002 21.3052L11.857 21.3135L11.8231 30.1369V30.1369C10.6319 30.1324 9.66994 29.163 9.67452 27.9718L9.7002 21.3052Z" fill="#FAFAFA"/>
<path d="M11.823 30.1372L11.8321 27.7843L25.7535 27.8379V27.8379C25.7485 29.1374 24.691 30.1868 23.3915 30.1818L11.823 30.1372Z" fill="#FAFAFA"/>
<path d="M16.546 25.6455C15.3548 25.6409 14.3929 24.6716 14.3975 23.4804V23.4804L24.6915 23.52C25.2871 23.5223 25.7681 24.007 25.7658 24.6026V24.6026C25.7635 25.1982 25.2788 25.6791 24.6832 25.6768L16.546 25.6455Z" fill="#FAFAFA"/>
<path d="M19.8962 21.3444C19.2464 21.3419 18.7218 20.8131 18.7243 20.1634V20.1634C18.7268 19.5136 19.2555 18.9889 19.9052 18.9915L25.7876 19.0141L25.7785 21.367L19.8962 21.3444Z" fill="#FAFAFA"/>
<path d="M24.3515 9.98894C25.9376 9.99505 27.4564 10.6 28.5739 11.6707C29.6913 12.7414 30.3158 14.1901 30.31 15.6982C30.3042 17.2063 29.6685 18.6502 28.5429 19.7122C27.4173 20.7743 25.8938 21.3675 24.3077 21.3614L24.3162 19.174C25.2921 19.1778 26.2295 18.8128 26.9221 18.1593C27.6148 17.5058 28.0059 16.6173 28.0095 15.6893C28.013 14.7614 27.6288 13.87 26.9412 13.2111C26.2536 12.5523 25.3191 12.1801 24.3431 12.1763L24.3515 9.98894Z" fill="#FAFAFA"/>
<path d="M24.3168 19.0088C25.9029 19.0149 27.4218 19.6095 28.5393 20.6618C29.6568 21.7141 30.2814 23.1379 30.2757 24.62C30.27 26.1021 29.6344 27.521 28.5089 28.5647C27.3833 29.6084 25.8599 30.1912 24.2738 30.1851L24.2824 27.953C25.2349 27.9567 26.1498 27.6066 26.8258 26.9798C27.5018 26.353 27.8835 25.5009 27.8869 24.6108C27.8903 23.7207 27.5152 22.8656 26.8441 22.2336C26.173 21.6017 25.2608 21.2446 24.3082 21.2409L24.3168 19.0088Z" fill="#FAFAFA"/>
</svg>
