<svg width="32" height="32" viewBox="0 0 32 32" fill="none" xmlns="http://www.w3.org/2000/svg">
<g clip-path="url(#clip0_340_21)">
<path d="M14.0569 31.8801C11.2029 31.5101 8.26489 30.2861 6.12489 28.5731C1.30689 24.7291 -0.880107 18.6561 0.369893 12.6251C0.905893 10.0211 2.30189 7.28112 4.08889 5.30712C5.40616 3.82656 6.99346 2.61054 8.76589 1.72412C11.1199 0.531117 13.3699 -0.00488281 16.0259 -0.00488281C17.9319 -0.00488281 19.4639 0.245117 21.2189 0.844117C23.5246 1.63483 25.6192 2.94156 27.3432 4.66469C29.0672 6.38782 30.375 8.48185 31.1669 10.7871C32.1049 13.5371 32.2759 16.4641 31.6769 19.3651C31.1979 21.6571 29.9629 24.2351 28.4429 26.0991C27.8179 26.8701 26.3799 28.2451 25.6249 28.8021C23.3664 30.4801 20.7099 31.5409 17.9169 31.8801C17.0939 31.9841 14.8529 31.9791 14.0569 31.8801ZM18.4169 30.5421C20.3472 30.2188 22.1949 29.5184 23.8545 28.4808C25.514 27.4432 26.9529 26.0889 28.0889 24.4951C30.7919 20.6981 31.5159 15.6041 29.9899 11.1621C29.6309 10.1201 28.7399 8.38112 28.0889 7.46412C27.3649 6.43812 25.5729 4.64112 24.5419 3.91712C23.5419 3.20912 21.8389 2.34912 20.6769 1.96912C18.5794 1.27204 16.3521 1.05526 14.1596 1.3348C11.967 1.61434 9.86536 2.38305 8.00989 3.58412C6.26423 4.73114 4.77191 6.22345 3.62489 7.96912C2.42407 9.82356 1.65546 11.9242 1.37592 14.1157C1.09638 16.3073 1.31304 18.5336 2.00989 20.6301C2.39489 21.7911 3.25489 23.5001 3.95789 24.5001C4.68689 25.5261 6.47889 27.3231 7.50489 28.0471C8.42689 28.6931 10.1609 29.5831 11.2029 29.9481C13.5222 30.7361 16 30.9401 18.4169 30.5421ZM12.8749 25.1771C12.127 25.0651 11.4096 24.8029 10.7659 24.4061C10.1879 24.0361 5.82289 19.7601 5.60989 19.3591C5.36489 18.9011 5.79189 18.0671 6.40189 17.8121L6.68789 17.6921L5.80789 16.7961C5.32389 16.3011 4.86489 15.7751 4.79189 15.6291C4.61989 15.2961 4.61489 14.5821 4.77589 14.2641C4.84389 14.1341 5.00489 13.9361 5.12989 13.8261C5.34389 13.6491 5.36389 13.5861 5.34389 13.1381C5.31789 12.7421 5.35389 12.5861 5.52589 12.2891C5.77589 11.8621 6.29189 11.5751 6.79689 11.5701C7.07789 11.5701 7.15089 11.5341 7.27089 11.3251C7.58389 10.7781 8.47889 10.5801 9.16189 10.9141L9.53189 11.0911L9.71389 10.9141C9.96389 10.6851 10.4639 10.4821 10.7919 10.4821C11.4479 10.4821 12.3749 11.2371 12.3749 11.7681C12.3749 12.4031 11.7969 12.5131 11.2239 11.9871C10.8439 11.6331 10.6509 11.5961 10.4949 11.8461C10.4169 11.9661 10.6039 12.1901 11.7239 13.3201C12.8439 14.4451 13.0469 14.6851 13.0469 14.8981C13.038 15.0614 12.9685 15.2155 12.852 15.3302C12.7355 15.4448 12.5803 15.5119 12.4169 15.5181C12.2139 15.5181 11.8809 15.2261 10.3439 13.6951C8.77589 12.1321 8.48989 11.8821 8.36489 11.9611C8.02589 12.1751 8.14089 12.3311 9.97389 14.1691C10.9689 15.1691 11.7869 16.0541 11.7869 16.1381C11.7869 16.3101 11.6309 16.6281 11.5009 16.7111C11.3942 16.7578 11.2782 16.7794 11.1619 16.7741C10.9479 16.7791 10.6199 16.4821 8.87589 14.7431C7.12589 13.0031 6.81289 12.7221 6.68789 12.8001C6.34389 13.0191 6.45889 13.1701 8.45389 15.1751C9.54289 16.2641 10.4539 17.2381 10.4799 17.3421C10.5369 17.5301 10.4119 17.8581 10.2459 17.9721C10.1357 18.019 10.0165 18.0405 9.89689 18.0351C9.68289 18.0351 9.41289 17.8011 7.96989 16.3581C6.57889 14.9671 6.25589 14.6811 6.07889 14.6971C5.57889 14.7541 5.75589 14.9781 8.33889 17.5671C10.5789 19.8121 10.8649 20.1301 10.8649 20.3641C10.8675 20.4501 10.8484 20.5353 10.8092 20.6119C10.77 20.6885 10.7121 20.7539 10.6409 20.8021C10.2399 21.1201 10.0839 21.0471 9.07289 20.0681C8.55689 19.5731 8.02589 19.0941 7.88489 19.0051C7.62989 18.8491 6.98389 18.7811 6.86389 18.9061C6.82189 18.9421 7.77489 19.9481 8.97889 21.1401C10.9839 23.1241 11.2129 23.3281 11.8019 23.6091C12.3444 23.8795 12.942 24.0211 13.5482 24.0229C14.1544 24.0246 14.7528 23.8864 15.2969 23.6191C16.9789 22.8171 17.9119 20.8691 17.4529 19.1031C17.2239 18.2231 16.9369 17.8011 15.7809 16.6081C14.4479 15.2431 14.1399 14.8681 13.8119 14.2121C13.4469 13.4781 13.2909 12.7641 13.2909 11.8731C13.2909 10.9091 13.3899 10.4721 13.8169 9.57112C14.2229 8.71212 15.0719 7.81112 15.9109 7.34712C17.5569 6.43012 19.7239 6.50812 21.2959 7.53512C21.6089 7.73812 22.7389 8.80112 24.1449 10.2121C26.2339 12.3061 26.4729 12.5771 26.4729 12.8161C26.4729 13.3841 26.0089 14.0141 25.4939 14.1441C25.3009 14.1961 25.3379 14.2481 26.2129 15.1391C26.7229 15.6551 27.1969 16.2121 27.2699 16.3841C27.5149 16.9731 27.4049 17.5451 26.9569 18.0141C26.7279 18.2541 26.6969 18.3371 26.6909 18.8161C26.6859 19.2381 26.6389 19.4151 26.4719 19.6551C26.34 19.8504 26.1634 20.0113 25.9567 20.1245C25.7501 20.2377 25.5194 20.3 25.2839 20.3061C24.9609 20.3061 24.8989 20.3371 24.7369 20.5821C24.3719 21.1451 23.4239 21.3421 22.8099 20.9781L22.5029 20.7961L22.2839 21.0101C21.7999 21.4741 21.0179 21.5361 20.4249 21.1561C19.9459 20.8541 19.5919 20.4321 19.5919 20.1661C19.5919 19.9321 19.9309 19.5461 20.1389 19.5461C20.3369 19.5461 20.6029 19.7021 20.9049 19.9841C21.2069 20.2701 21.4679 20.2701 21.5089 19.9791C21.5299 19.8231 21.2799 19.5261 20.2689 18.5101C19.2059 17.4371 19.0029 17.1921 19.0029 16.9841C19.0005 16.868 19.022 16.7526 19.0659 16.6451C19.1809 16.4731 19.5039 16.3531 19.7009 16.4051C19.8049 16.4311 20.6849 17.2441 21.6489 18.2071C22.6179 19.1761 23.4669 19.9671 23.5449 19.9671C23.7589 19.9671 23.8989 19.7531 23.7999 19.5711C23.7529 19.4881 22.9349 18.6491 21.9869 17.7011C20.5029 16.2221 20.2629 15.9461 20.2629 15.7271C20.2583 15.6092 20.2798 15.4917 20.3259 15.3831C20.4149 15.2531 20.7269 15.0971 20.9039 15.0971C20.9819 15.0971 21.9609 16.0081 23.0809 17.1231C25.1329 19.1651 25.2839 19.2791 25.4979 18.9411C25.5759 18.8161 25.2949 18.4981 23.5549 16.7531C21.7579 14.9511 21.5189 14.6801 21.5189 14.4461C21.5189 14.2851 21.5919 14.1181 21.7069 14.0141C22.0869 13.6551 22.2019 13.7281 24.0509 15.5661C25.8009 17.3111 25.9569 17.4251 26.1709 17.0921C26.2489 16.9671 25.8949 16.5821 23.7229 14.4041C21.3579 12.0291 21.1869 11.8361 21.1869 11.5601C21.1869 11.1431 21.4269 10.9451 21.8899 10.9771C21.9729 10.9821 22.4729 11.4041 22.9889 11.9091C23.5099 12.4141 24.0719 12.8881 24.2389 12.9611C24.5669 13.0961 24.9469 13.1171 25.1089 13.0131C25.2649 12.9141 20.9419 8.65912 20.3799 8.36212C19.898 8.10204 19.368 7.94333 18.8225 7.89575C18.277 7.84818 17.7275 7.91275 17.2079 8.08548C16.6883 8.25822 16.2095 8.53547 15.8011 8.90017C15.3926 9.26487 15.0631 9.70931 14.8329 10.2061C14.5619 10.7841 14.5259 10.9561 14.4889 11.7011C14.4579 12.4041 14.4839 12.6231 14.6349 13.0711C14.9059 13.8681 15.1399 14.1961 16.3539 15.4361C17.6669 16.7801 17.9169 17.0871 18.2499 17.8061C19.1879 19.8061 18.7919 22.1191 17.2449 23.6601C16.0679 24.8421 14.4639 25.3951 12.8749 25.1771Z" fill="black"/>
</g>
<defs>
<clipPath id="clip0_340_21">
<rect width="32" height="32" fill="white"/>
</clipPath>
</defs>
</svg>
