<svg width="19" height="23" viewBox="0 0 19 23" fill="none" xmlns="http://www.w3.org/2000/svg">
<path d="M10.5929 22.2579L10.5819 22.2599L10.5109 22.2949L10.4909 22.2989L10.4769 22.2949L10.4059 22.2599C10.3953 22.2566 10.3873 22.2583 10.3819 22.2649L10.3779 22.2749L10.3609 22.7029L10.3659 22.7229L10.3759 22.7359L10.4799 22.8099L10.4949 22.8139L10.5069 22.8099L10.6109 22.7359L10.6229 22.7199L10.6269 22.7029L10.6099 22.2759C10.6073 22.2653 10.6016 22.2593 10.5929 22.2579ZM10.8579 22.1449L10.8449 22.1469L10.6599 22.2399L10.6499 22.2499L10.6469 22.2609L10.6649 22.6909L10.6699 22.7029L10.6779 22.7099L10.8789 22.8029C10.8916 22.8063 10.9013 22.8036 10.9079 22.7949L10.9119 22.7809L10.8779 22.1669C10.8746 22.1549 10.8679 22.1476 10.8579 22.1449ZM10.1429 22.1469C10.1385 22.1443 10.1333 22.1434 10.1282 22.1445C10.1232 22.1456 10.1188 22.1487 10.1159 22.1529L10.1099 22.1669L10.0759 22.7809C10.0766 22.7929 10.0823 22.8009 10.0929 22.8049L10.1079 22.8029L10.3089 22.7099L10.3189 22.7019L10.3229 22.6909L10.3399 22.2609L10.3369 22.2489L10.3269 22.2389L10.1429 22.1469Z" fill="white"/>
<path d="M4.31499 5.17605C4.06499 4.53805 4.07499 3.80905 4.18599 3.14205C4.94994 3.37161 5.66755 3.7338 6.30598 4.21205C6.58598 4.42605 6.95299 4.49505 7.29499 4.39205C8.17242 4.12888 9.08393 3.99678 9.99998 4.00005C10.961 4.00005 11.874 4.14005 12.703 4.39105C13.045 4.49505 13.412 4.42505 13.691 4.21105C14.3291 3.7329 15.0464 3.37072 15.81 3.14105C15.921 3.80805 15.93 4.53705 15.682 5.17405C15.532 5.55805 15.607 6.00005 15.89 6.31405C16.614 7.11705 17 8.04005 17 9.00005C17 11.1141 15.03 13.1871 11.866 13.8181C11.074 13.9761 10.765 14.9731 11.371 15.5441C11.76 15.9101 12 16.4261 12 17.0001V20.0001C12 20.2653 12.1053 20.5196 12.2929 20.7072C12.4804 20.8947 12.7348 21.0001 13 21.0001C13.2652 21.0001 13.5196 20.8947 13.7071 20.7072C13.8946 20.5196 14 20.2653 14 20.0001V17.0001C14 16.4301 13.88 15.8881 13.666 15.3971C16.683 14.3501 19 11.9931 19 9.00005C19 7.65305 18.516 6.41505 17.713 5.37805C17.923 4.55805 17.904 3.73205 17.824 3.09805C17.753 2.53005 17.654 1.78605 17.254 1.34205C16.659 0.683051 15.674 1.07105 14.974 1.31005C14.2227 1.56327 13.5082 1.91464 12.849 2.35505C11.9181 2.11713 10.9608 1.99785 9.99998 2.00005C9.00598 2.00005 8.04699 2.12505 7.14899 2.35605C6.48977 1.91564 5.77525 1.56427 5.02399 1.31105C4.32399 1.07105 3.33799 0.683051 2.74299 1.34205C2.33499 1.79405 2.24999 2.47905 2.17699 3.06105L2.17199 3.09905C2.09199 3.73405 2.07399 4.56105 2.28399 5.38205C1.48399 6.41805 0.999985 7.65405 0.999985 9.00005C0.999985 11.9921 3.31698 14.3501 6.33398 15.3971C6.11599 15.8965 6.00233 16.4351 5.99999 16.9801L5.83198 17.0141C5.11498 17.1131 4.65599 17.0241 4.34399 16.8921C3.58399 16.5701 3.19199 15.7591 2.71399 15.1391C2.41599 14.7541 1.98199 14.2731 1.31599 14.0511C1.19136 14.0096 1.05978 13.993 0.928764 14.0024C0.797746 14.0117 0.669853 14.0468 0.552386 14.1056C0.315153 14.2243 0.134794 14.4324 0.0509852 14.6841C-0.0328232 14.9357 -0.0132154 15.2104 0.105495 15.4477C0.224206 15.6849 0.432295 15.8652 0.683985 15.9491C1.24199 16.1351 1.62799 17.0911 1.98199 17.5151C2.35499 17.9631 2.85098 18.4311 3.56199 18.7331C4.24398 19.0231 5.04499 19.1261 5.99999 19.0091V20.0001C5.99999 20.2653 6.10534 20.5196 6.29288 20.7072C6.48042 20.8947 6.73477 21.0001 6.99999 21.0001C7.2652 21.0001 7.51956 20.8947 7.70709 20.7072C7.89463 20.5196 7.99998 20.2653 7.99998 20.0001V17.0001C7.99998 16.4261 8.23998 15.9101 8.62898 15.5441C9.23598 14.9721 8.92598 13.9761 8.13398 13.8181C4.96898 13.1871 2.99999 11.1141 2.99999 9.00005C2.99999 8.04205 3.38499 7.11905 4.10799 6.31605C4.39099 6.00205 4.46499 5.56005 4.31499 5.17605Z" fill="white"/>
</svg>
